<?xml version="1.0" standalone="no"?>
<!DOCTYPE svg PUBLIC "-//W3C//DTD SVG 20010904//EN"
 "http://www.w3.org/TR/2001/REC-SVG-20010904/DTD/svg10.dtd">
<svg version="1.0" xmlns="http://www.w3.org/2000/svg"
 width="1173.000000pt" height="1173.000000pt" viewBox="0 0 1173.000000 1173.000000"
 preserveAspectRatio="xMidYMid meet">
<metadata>
Created by potrace 1.14, written by Peter Selinger 2001-2017
</metadata>
<g transform="translate(0.000000,1173.000000) scale(0.100000,-0.100000)"
fill="#000000" stroke="none">
<path d="M885 10082 c-66 -17 -66 -17 -100 -31 -74 -30 -105 -45 -105 -53 0
-4 -5 -8 -11 -8 -13 0 -86 -58 -136 -107 -18 -18 -29 -33 -26 -33 4 0 -2 -9
-13 -20 -31 -31 -44 -49 -44 -59 0 -5 -3 -11 -7 -13 -8 -3 -54 -92 -61 -118
-2 -8 -6 -28 -9 -45 -3 -16 -9 -34 -13 -40 -4 -5 -8 -35 -9 -65 -1 -30 -4 -75
-8 -100 -10 -75 -9 -480 1 -480 6 0 6 -4 0 -10 -7 -7 -8 -28 -4 -55 4 -24 3
-51 -2 -59 -6 -10 -5 -16 2 -16 6 0 8 -5 5 -11 -10 -16 -13 -59 -5 -59 10 0 8
-20 -3 -37 -5 -8 -3 -13 3 -13 7 0 8 -6 1 -17 -5 -10 -5 -26 0 -40 5 -14 5
-23 -1 -23 -6 0 -6 -9 -1 -23 5 -13 6 -30 1 -37 -5 -7 -4 -24 1 -37 5 -13 5
-23 -1 -23 -5 0 -5 -12 0 -30 6 -21 5 -30 -3 -30 -8 0 -8 -3 -2 -8 12 -8 15
-52 4 -52 -4 0 -3 -15 1 -34 5 -22 3 -39 -3 -45 -8 -8 -8 -11 0 -11 7 0 8 -14
3 -40 -4 -24 -3 -41 3 -43 6 -2 6 -11 -2 -24 -6 -12 -7 -24 -3 -27 5 -3 6 -28
2 -55 -4 -33 -3 -52 4 -54 7 -3 7 -9 -2 -19 -9 -12 -10 -18 -2 -23 7 -4 8 -11
2 -18 -5 -7 -6 -21 -2 -32 4 -11 3 -28 -2 -37 -6 -13 -5 -18 4 -18 8 0 9 -3 1
-11 -6 -6 -8 -23 -3 -44 4 -18 4 -39 -1 -46 -4 -7 -3 -19 3 -26 7 -9 7 -13 0
-13 -11 0 -11 -18 1 -37 4 -6 3 -14 -2 -18 -7 -3 -7 -15 -1 -29 5 -13 6 -27 3
-30 -9 -9 -9 -58 -1 -84 4 -13 5 -21 0 -19 -4 3 -7 -42 -7 -99 0 -57 4 -104 8
-104 5 0 5 -5 1 -12 -10 -16 -11 -1968 -1 -1968 5 0 5 -5 1 -11 -8 -14 -11
-99 -3 -99 8 0 4 -65 -6 -80 -5 -8 -4 -11 2 -7 13 8 11 -136 -2 -145 -7 -5 -7
-8 0 -8 13 0 15 -60 3 -60 -5 0 -6 -5 -2 -11 10 -17 12 -109 2 -109 -5 0 -5
-8 0 -18 10 -20 10 -32 -1 -49 -5 -7 -4 -13 0 -13 5 0 9 -9 10 -20 1 -11 -2
-18 -8 -15 -5 4 -6 -3 -1 -17 10 -27 9 -39 -1 -55 -5 -7 -4 -13 0 -13 5 0 9
-9 10 -20 1 -11 -2 -18 -7 -15 -5 3 -5 -9 1 -27 5 -20 5 -34 -1 -38 -5 -3 -5
-11 -1 -19 5 -8 5 -27 1 -42 -6 -19 -5 -29 2 -29 7 0 6 -5 -1 -14 -9 -11 -9
-15 0 -18 9 -3 9 -9 0 -25 -6 -12 -7 -24 -2 -27 9 -6 7 -48 -3 -65 -4 -5 -2
-12 3 -15 6 -4 6 -18 1 -36 -5 -19 -5 -30 2 -32 8 -3 7 -10 0 -25 -6 -11 -9
-23 -5 -27 9 -8 9 -76 1 -76 -4 0 -3 -11 2 -25 6 -16 6 -26 -1 -31 -5 -3 -6
-11 -2 -17 10 -15 10 -38 0 -54 -5 -8 -3 -13 3 -13 6 0 8 -5 5 -11 -10 -16
-13 -59 -5 -59 10 0 8 -20 -3 -38 -5 -7 -3 -12 3 -12 7 0 8 -6 0 -19 -7 -14
-7 -22 0 -26 8 -5 7 -11 -1 -21 -9 -11 -9 -14 0 -14 7 0 9 -5 6 -11 -10 -16
-13 -59 -5 -59 10 0 8 -20 -3 -38 -5 -7 -3 -12 4 -12 9 0 10 -3 2 -11 -6 -6
-8 -23 -3 -44 4 -18 4 -39 -1 -46 -4 -7 -3 -19 3 -26 6 -8 6 -13 1 -13 -11 0
-11 -29 1 -48 4 -6 4 -12 -1 -12 -4 0 -8 -16 -8 -35 0 -19 5 -35 10 -35 7 0 7
-3 0 -8 -12 -8 -14 -1143 -3 -1135 5 2 8 -13 9 -34 1 -73 17 -157 30 -161 5
-2 9 -12 9 -22 0 -10 7 -25 15 -34 9 -8 16 -19 17 -23 4 -27 11 -43 19 -43 5
0 9 -6 9 -14 0 -8 12 -24 26 -35 15 -12 23 -21 19 -21 -4 0 16 -25 46 -55 29
-30 58 -55 64 -55 6 0 16 -9 23 -20 7 -11 19 -20 27 -20 8 0 15 -5 15 -11 0
-5 4 -8 9 -5 5 3 12 -1 15 -10 3 -8 10 -12 16 -9 6 3 17 -1 26 -9 8 -9 24 -16
34 -16 10 0 20 -4 22 -9 1 -6 14 -12 28 -14 14 -2 36 -9 50 -14 14 -6 33 -9
43 -7 9 1 17 -1 17 -5 0 -9 286 -8 296 2 4 4 18 7 31 7 13 0 31 4 41 9 25 14
56 24 65 23 4 -1 7 2 7 8 0 5 8 10 17 10 9 0 25 8 36 17 15 13 19 14 13 3 -5
-10 -3 -9 6 2 8 9 20 18 28 20 14 3 49 29 82 61 10 9 20 17 23 17 3 0 5 1 5 3
0 1 24 28 53 60 30 31 60 69 67 85 8 15 23 39 33 55 10 15 16 27 12 27 -3 0 0
10 7 23 7 12 12 25 13 29 0 3 3 10 8 14 4 4 7 22 7 40 0 18 4 35 8 38 4 2 7
35 7 73 -1 37 1 72 4 77 8 16 7 56 -2 56 -4 0 -6 4 -3 8 10 17 14 62 6 62 -6
0 -6 10 0 25 6 16 6 26 -1 31 -7 4 -6 10 1 19 8 10 8 15 -1 20 -8 6 -7 10 2
16 11 7 11 9 1 9 -9 0 -10 5 -3 19 6 10 8 21 4 24 -9 10 -9 97 1 97 5 0 5 5 0
13 -11 15 -11 38 -1 55 5 7 3 12 -4 12 -8 0 -9 3 0 13 6 8 8 17 4 20 -9 10
-10 538 0 544 4 2 4 10 0 16 -10 17 -10 207 0 207 4 0 5 6 0 13 -11 18 -11
1259 0 1275 5 6 6 12 2 12 -4 0 -2 7 5 15 11 13 10 14 -6 8 -16 -6 -17 -5 -6
9 9 11 13 45 13 97 0 44 3 83 8 85 4 3 8 31 9 62 0 31 4 60 9 63 5 3 9 23 8
44 -1 20 2 37 7 37 4 0 8 16 8 35 0 19 4 35 9 35 4 0 8 8 8 18 0 26 15 82 22
82 4 0 8 12 9 26 1 15 7 33 12 39 6 7 10 17 9 21 -2 10 8 40 22 66 5 10 9 25
9 33 0 8 5 15 12 15 6 0 8 3 5 7 -4 3 -1 13 6 21 10 13 9 15 -3 8 -8 -4 -6 0
4 8 11 9 16 16 12 16 -5 0 -3 7 4 15 6 8 8 20 4 26 -4 7 -3 9 3 6 10 -6 38 40
35 56 -1 4 2 7 7 7 5 0 20 20 32 45 12 25 26 45 30 45 4 0 10 8 13 18 3 9 16
29 28 44 13 15 34 42 48 60 29 38 146 158 154 158 5 0 41 29 70 55 20 20 104
75 113 75 5 0 16 9 26 20 10 12 22 18 27 15 6 -3 10 -2 10 3 0 10 53 36 66 32
4 -1 10 3 13 8 7 11 94 52 110 52 6 0 11 4 11 9 0 6 9 8 20 6 12 -2 23 2 27
10 3 8 9 12 14 9 6 -3 15 -1 22 4 7 5 20 8 30 7 9 -2 17 1 17 7 0 6 7 8 15 5
8 -4 17 -2 20 3 3 5 13 9 23 9 16 0 57 8 57 11 0 3 49 10 82 13 17 1 30 4 28
7 -4 7 41 10 162 13 47 1 83 6 83 12 0 6 3 6 8 -1 4 -6 71 -10 187 -10 174 1
240 -3 259 -13 6 -2 24 -6 40 -7 35 -4 54 -8 77 -18 8 -4 29 -8 45 -9 16 -1
31 -5 34 -9 3 -4 15 -9 25 -11 39 -8 188 -73 227 -99 14 -10 29 -18 32 -18 14
0 74 -49 68 -55 -4 -5 -2 -5 4 -2 18 10 116 -79 227 -205 22 -23 117 -166 117
-174 0 -3 9 -19 21 -35 11 -16 18 -29 15 -29 -4 0 5 -21 18 -47 40 -79 55
-117 50 -125 -3 -4 0 -8 7 -8 7 0 10 -3 7 -6 -4 -3 0 -22 9 -42 8 -20 17 -45
19 -56 8 -41 17 -91 17 -103 0 -7 4 -13 8 -13 4 0 7 -15 7 -34 0 -19 3 -43 6
-54 13 -40 28 -146 29 -209 1 -13 5 -23 9 -23 4 0 8 -5 8 -11 0 -5 -5 -7 -12
-3 -8 5 -8 3 -2 -7 5 -8 10 -187 11 -399 1 -212 2 -385 3 -385 4 0 10 -43 12
-77 2 -21 7 -38 12 -38 6 0 5 -5 -2 -12 -6 -6 -8 -18 -3 -27 4 -9 9 -36 10
-61 2 -25 6 -49 9 -55 4 -5 8 -23 9 -40 5 -56 6 -65 13 -65 3 0 6 -12 7 -27 0
-16 6 -55 13 -88 7 -33 13 -66 13 -72 0 -7 4 -13 9 -13 4 0 8 -13 8 -30 0 -16
4 -39 9 -52 17 -42 24 -63 28 -82 2 -11 9 -32 17 -46 7 -15 12 -34 10 -43 -1
-9 4 -17 11 -17 7 0 11 -10 10 -25 -2 -14 1 -25 6 -25 5 0 9 -11 9 -25 0 -14
5 -25 10 -25 6 0 10 -6 9 -12 -2 -21 13 -58 24 -58 6 0 8 -3 4 -6 -3 -3 3 -21
14 -40 10 -19 19 -41 19 -49 0 -8 5 -15 11 -15 6 0 9 -6 6 -14 -3 -8 -3 -16 1
-18 11 -5 47 -81 44 -92 -2 -6 0 -8 4 -4 9 10 36 -41 28 -53 -3 -5 1 -9 8 -9
8 0 22 -18 32 -40 10 -22 22 -40 27 -40 6 0 7 -4 4 -10 -6 -9 0 -18 35 -59 8
-9 22 -30 30 -46 15 -29 33 -54 58 -80 6 -8 12 -18 12 -22 0 -5 8 -18 18 -29
10 -10 37 -45 61 -76 24 -32 47 -58 52 -58 5 0 9 -4 9 -10 0 -14 37 -50 52
-50 6 0 9 -3 5 -6 -6 -6 106 -119 200 -201 30 -27 71 -63 92 -81 20 -18 53
-42 74 -54 20 -12 37 -25 37 -30 0 -4 7 -8 16 -8 8 0 13 -4 10 -9 -5 -8 5 -13
37 -19 4 -1 15 -10 25 -19 37 -35 60 -51 66 -46 3 3 8 -2 12 -11 3 -9 10 -14
14 -11 5 3 15 -1 23 -9 8 -9 43 -30 78 -47 35 -18 66 -36 67 -41 2 -4 11 -8
21 -8 9 0 21 -4 26 -9 19 -19 167 -91 176 -85 5 3 9 1 9 -5 0 -6 18 -16 40
-22 22 -7 40 -17 40 -23 0 -6 5 -4 10 4 5 8 10 10 10 4 0 -9 53 -31 85 -35 6
0 16 -5 23 -11 6 -6 12 -7 12 -3 0 4 6 3 13 -3 6 -5 38 -16 70 -23 31 -8 57
-17 57 -20 0 -4 8 -6 18 -5 9 2 24 -1 32 -5 18 -9 72 -23 83 -21 4 1 7 -2 7
-8 0 -5 7 -7 15 -4 8 4 23 3 33 -1 9 -5 22 -9 27 -10 6 0 26 -4 45 -8 45 -9
88 -17 120 -23 34 -6 115 -14 171 -18 25 -1 50 -5 55 -7 5 -3 26 -5 47 -4 20
0 37 -2 37 -5 0 -3 26 -4 58 -3 31 2 62 3 67 3 6 0 56 -1 113 -3 66 -2 102 1
102 8 0 6 3 7 8 0 8 -12 112 -15 112 -3 0 4 11 3 24 -2 13 -5 26 -7 28 -5 7 7
62 15 133 20 39 3 81 7 95 10 14 3 41 7 60 10 59 9 69 11 76 17 3 4 12 4 19 2
7 -3 16 -1 19 4 3 6 15 8 26 5 12 -3 20 0 20 6 0 7 4 10 8 7 8 -5 80 9 112 22
8 3 18 6 23 7 4 2 8 3 10 5 1 1 9 3 17 5 44 9 136 38 145 46 5 5 17 9 27 9 10
0 18 5 18 11 0 5 3 8 8 5 4 -2 21 1 37 8 17 7 33 12 36 12 4 -1 16 8 28 18 12
11 21 16 21 11 0 -4 7 -2 15 5 8 7 15 9 15 4 0 -5 7 0 15 10 8 11 15 17 15 13
0 -4 29 9 65 28 36 19 65 32 65 30 0 -3 9 3 19 12 32 30 50 44 53 41 5 -3 103
56 106 64 2 4 10 8 18 8 8 0 17 7 20 15 4 8 10 12 15 9 5 -3 12 2 15 10 3 9
12 16 20 16 8 0 14 5 14 10 0 6 7 10 16 10 8 0 12 5 9 10 -3 5 -2 10 2 10 5 0
19 8 31 18 39 30 206 196 236 235 15 20 34 37 42 37 14 0 16 -9 17 -92 0 -27
4 -48 7 -48 4 0 8 -26 9 -57 1 -31 7 -63 13 -70 6 -7 7 -13 3 -13 -4 0 0 -11
9 -25 9 -14 14 -25 11 -25 -3 0 1 -13 10 -30 8 -16 16 -33 17 -37 1 -5 10 -17
20 -27 10 -11 18 -23 18 -28 0 -4 14 -21 30 -38 17 -17 30 -35 30 -41 0 -6 4
-7 10 -4 6 3 10 -1 10 -10 0 -9 5 -13 10 -10 6 3 10 -1 10 -9 0 -8 10 -21 23
-27 19 -10 49 -33 95 -70 6 -5 12 -6 12 -2 0 4 4 4 8 -2 10 -14 49 -35 66 -35
8 0 22 -7 30 -16 9 -8 16 -13 16 -10 0 3 12 1 28 -5 25 -10 42 -13 115 -24 16
-3 33 -7 38 -10 5 -4 9 -1 9 6 0 8 4 8 15 -1 12 -10 15 -10 15 1 0 10 3 10 11
2 7 -7 20 -8 33 -4 11 4 33 7 48 6 15 0 24 3 21 9 -4 5 1 7 10 3 18 -7 132 26
154 44 7 6 13 8 13 3 0 -5 4 -4 8 1 7 10 52 33 62 32 5 -1 30 19 89 70 20 18
40 33 44 33 5 0 5 4 2 10 -3 5 2 10 11 10 10 0 14 3 11 7 -4 3 5 16 18 29 14
13 25 28 25 34 0 6 5 8 10 5 6 -3 10 0 10 7 0 7 11 30 24 49 14 20 28 48 32
63 3 14 10 26 15 26 5 0 9 11 9 24 0 14 4 27 9 30 5 4 8 14 6 24 -1 9 2 22 7
29 15 19 13 7364 -1 7392 -7 12 -9 21 -6 21 3 0 -1 15 -9 34 -8 19 -12 37 -9
40 3 3 1 12 -5 19 -7 8 -9 17 -5 20 3 4 2 7 -3 7 -6 0 -16 16 -24 35 -8 19
-17 35 -22 35 -4 0 -8 7 -8 15 0 8 -5 15 -12 15 -6 0 -9 3 -5 6 3 3 -11 23
-31 44 -20 21 -45 46 -54 56 -37 41 -170 134 -191 134 -9 0 -19 5 -22 10 -4 6
-11 8 -16 5 -5 -4 -9 -1 -9 6 0 7 -3 9 -6 6 -4 -3 -15 -2 -26 4 -69 37 -279
53 -388 29 -30 -7 -61 -12 -67 -13 -7 0 -13 -4 -13 -9 0 -5 -4 -7 -9 -4 -4 3
-33 -6 -62 -21 -30 -15 -57 -26 -61 -25 -5 1 -8 -3 -8 -9 0 -5 -4 -7 -10 -4
-5 3 -10 2 -10 -3 0 -5 -10 -13 -22 -19 -22 -10 -101 -75 -122 -101 -6 -7 -20
-23 -31 -35 -12 -12 -22 -26 -24 -32 -2 -5 -16 -28 -30 -50 -30 -45 -67 -125
-63 -137 1 -5 -3 -8 -9 -8 -6 0 -9 -6 -6 -12 2 -7 1 -20 -3 -28 -5 -8 -11 -31
-14 -50 -3 -19 -8 -46 -11 -60 -3 -14 -5 -277 -5 -585 1 -736 1 -719 14 -727
8 -6 8 -8 -1 -8 -13 0 -15 -58 -1 -66 4 -3 5 -10 2 -16 -12 -19 -11 -98 0 -98
7 0 7 -3 1 -8 -12 -9 -13 -32 -1 -51 6 -9 5 -12 -2 -7 -7 4 -10 -1 -9 -14 1
-11 5 -20 10 -20 4 0 5 -6 0 -12 -11 -19 -11 -72 1 -80 7 -5 7 -8 -1 -8 -7 0
-13 -11 -13 -25 0 -14 6 -25 13 -25 9 0 9 -2 -1 -8 -10 -7 -12 -72 -9 -308 3
-164 6 -315 7 -334 6 -68 2 -80 -25 -80 -16 0 -25 6 -25 15 0 8 -4 15 -10 15
-5 0 -10 5 -10 11 0 14 -167 179 -174 172 -3 -4 -6 1 -6 10 0 9 -6 17 -13 17
-7 0 -20 8 -28 18 -9 9 -29 26 -45 37 -16 11 -39 30 -51 41 -12 12 -24 20 -26
17 -3 -2 -17 7 -32 21 -16 15 -37 26 -47 26 -11 0 -16 5 -13 10 3 6 -1 10 -9
10 -9 0 -16 3 -16 8 0 4 -15 13 -32 21 -18 8 -45 22 -60 33 -14 10 -33 18 -42
18 -9 0 -19 6 -22 14 -3 8 -19 18 -35 21 -16 4 -29 11 -29 17 0 6 -3 8 -6 5
-4 -3 -16 -1 -28 5 -11 7 -23 13 -26 13 -3 0 -15 6 -27 13 -13 7 -23 10 -23 6
0 -3 -11 1 -25 10 -14 9 -30 14 -35 11 -6 -3 -10 -2 -10 4 0 6 -19 15 -42 22
-24 6 -61 18 -83 26 -22 8 -47 16 -55 18 -8 2 -35 8 -60 14 -25 7 -56 14 -69
17 -14 3 -29 7 -33 10 -5 3 -24 8 -41 10 -18 3 -52 9 -77 14 -75 16 -113 22
-160 25 -25 2 -56 7 -70 11 -40 12 -608 14 -675 3 -33 -6 -73 -12 -90 -13 -16
0 -36 -5 -44 -10 -10 -7 -12 -6 -6 4 6 10 4 11 -6 4 -16 -10 -25 -11 -89 -18
-25 -2 -75 -11 -112 -20 -36 -8 -77 -18 -89 -20 -110 -24 -175 -41 -179 -45
-3 -3 -14 -8 -25 -9 -11 -2 -47 -13 -80 -24 -33 -11 -64 -21 -70 -22 -5 -1
-14 -4 -20 -7 -5 -4 -28 -12 -50 -19 -22 -7 -45 -17 -52 -22 -7 -5 -17 -7 -23
-3 -5 3 -10 2 -10 -4 0 -5 -13 -12 -30 -16 -16 -4 -32 -11 -35 -16 -4 -5 -15
-9 -26 -9 -10 0 -19 -4 -19 -10 0 -5 -3 -9 -7 -8 -11 2 -101 -41 -135 -64 -16
-11 -28 -17 -28 -14 0 4 -36 -16 -81 -44 -44 -27 -85 -50 -90 -50 -5 0 -9 -4
-9 -8 0 -4 -12 -13 -27 -19 -16 -7 -48 -28 -73 -47 -25 -19 -51 -35 -57 -35
-7 -1 -13 -5 -13 -9 0 -5 -21 -24 -47 -42 -27 -19 -53 -39 -59 -45 -6 -5 -25
-21 -42 -35 -18 -14 -32 -31 -32 -39 0 -8 -3 -12 -6 -8 -4 3 -20 -9 -37 -28
-32 -37 -77 -48 -77 -19 0 8 -4 12 -10 9 -5 -3 -10 -1 -10 5 0 13 -20 36 -118
136 -35 35 -67 64 -73 64 -5 0 -9 7 -9 15 0 8 -4 15 -8 15 -5 0 -17 8 -28 18
-10 9 -37 30 -59 46 -22 17 -44 36 -48 43 -4 7 -13 13 -18 13 -13 0 -103 60
-107 72 -2 4 -9 8 -16 8 -8 0 -24 8 -37 18 -13 11 -51 33 -84 51 -33 18 -66
38 -72 43 -7 6 -13 8 -13 4 0 -4 -20 5 -45 19 -25 14 -50 25 -55 25 -6 0 -30
9 -54 21 -25 11 -52 22 -60 23 -9 1 -19 5 -22 9 -4 4 -16 7 -26 7 -10 0 -18 4
-18 10 0 5 -3 9 -7 8 -7 -2 -77 14 -123 29 -8 2 -16 4 -18 4 -1 -1 -18 6 -38
14 -20 8 -49 16 -65 17 -16 1 -29 6 -29 11 0 4 -4 6 -9 2 -6 -3 -29 -1 -53 5
-24 6 -56 13 -73 16 -16 3 -36 7 -43 10 -16 5 -73 11 -182 19 -42 3 -89 9
-105 13 -45 13 -575 4 -575 -9 0 -3 -30 -7 -67 -8 -81 -2 -174 -11 -188 -19
-5 -3 -21 -6 -35 -6 -14 -1 -31 -5 -37 -9 -7 -5 -13 -6 -13 -4 0 2 -39 -4 -87
-15 -49 -11 -96 -20 -105 -21 -10 -1 -18 -4 -18 -7 0 -4 -6 -7 -12 -7 -29 0
-143 -35 -146 -43 -2 -6 -7 -8 -12 -5 -5 3 -39 -6 -77 -20 -37 -14 -72 -27
-78 -29 -5 -2 -23 -8 -40 -15 -16 -6 -36 -14 -42 -16 -7 -2 -13 -9 -13 -16 0
-6 -7 -9 -15 -5 -8 3 -15 1 -15 -4 0 -6 -3 -9 -8 -8 -8 3 -94 -33 -102 -42 -3
-4 -20 -12 -38 -19 -17 -8 -32 -17 -32 -22 0 -5 -3 -8 -7 -7 -15 5 -207 -112
-225 -137 -4 -5 -8 -6 -8 -2 0 4 -12 -4 -27 -18 -15 -14 -31 -25 -35 -25 -10
0 -47 -37 -43 -42 3 -2 -11 -12 -30 -23 -19 -10 -35 -24 -35 -32 0 -7 -4 -13
-10 -13 -5 0 -34 -25 -63 -55 -59 -61 -98 -74 -95 -30 1 14 5 25 8 25 3 0 5
330 4 733 0 435 4 737 9 745 6 7 6 12 0 12 -5 0 -9 9 -9 20 0 11 4 20 9 20 5
0 5 6 -2 13 -8 10 -7 17 1 25 9 9 9 12 -1 12 -10 0 -11 3 -2 14 9 10 9 16 1
21 -8 5 -8 11 1 21 9 11 9 14 0 14 -8 0 -9 5 -2 19 6 10 7 21 4 25 -9 9 -11
46 -3 46 9 0 6 32 -4 48 -4 7 -2 12 4 12 6 0 8 5 4 12 -10 15 -13 48 -5 48 3
0 6 11 6 25 0 14 -4 25 -9 25 -5 0 -3 7 4 15 8 10 9 15 1 15 -7 0 -8 8 -1 25
5 14 5 27 0 30 -5 3 -5 18 0 35 5 18 5 32 -1 36 -6 4 -6 11 2 20 9 11 9 14 0
14 -9 0 -9 5 -1 20 6 11 7 20 3 20 -7 0 -9 95 -3 110 1 3 1 10 0 15 -2 6 -4
57 -6 115 -1 58 -7 122 -12 142 -5 20 -7 39 -4 42 3 4 0 6 -6 6 -7 0 -12 11
-12 25 0 14 -4 25 -10 25 -5 0 -9 3 -8 8 1 4 -3 17 -10 30 -7 12 -10 22 -7 22
3 0 1 6 -4 13 -46 56 -61 76 -61 86 0 6 -7 11 -15 11 -8 0 -14 4 -13 8 8 24
-165 163 -191 154 -8 -3 -11 0 -7 7 4 6 -1 14 -11 17 -10 3 -36 13 -58 22 -21
10 -42 17 -45 18 -3 0 -25 7 -50 14 -60 19 -317 20 -385 2z m7545 -3576 c0 -5
6 -3 13 3 8 6 17 8 21 4 4 -4 17 -8 29 -9 12 -1 42 -5 67 -9 25 -4 57 -8 71
-9 14 -2 31 -6 39 -11 7 -5 25 -9 39 -11 14 -1 26 -3 26 -4 0 -2 27 -9 63 -16
17 -4 32 -10 32 -15 0 -5 14 -9 30 -9 17 0 30 -3 30 -8 0 -6 35 -21 80 -33 8
-2 17 -6 20 -9 10 -10 125 -64 133 -62 4 1 7 -2 7 -7 0 -5 14 -14 30 -21 17
-7 30 -16 30 -21 0 -4 9 -6 20 -4 11 2 19 1 17 -3 -1 -4 2 -8 7 -9 5 0 13 -8
18 -17 5 -9 13 -16 19 -16 10 0 24 -10 60 -42 10 -10 21 -18 22 -18 14 0 185
-166 237 -230 19 -24 41 -49 48 -56 6 -7 12 -17 12 -22 0 -6 7 -12 15 -16 8
-3 15 -12 15 -21 0 -8 4 -15 8 -15 5 0 17 -18 28 -39 10 -22 22 -37 26 -35 5
3 8 -2 8 -10 0 -9 5 -16 11 -16 6 0 9 -6 7 -12 -3 -7 4 -21 14 -32 10 -11 18
-26 18 -33 0 -7 5 -13 11 -13 5 0 8 -4 5 -9 -3 -5 3 -19 13 -32 10 -13 19 -26
19 -29 1 -9 21 -59 42 -104 11 -25 20 -50 20 -56 0 -5 4 -18 9 -28 12 -22 23
-53 26 -72 1 -8 9 -35 18 -60 18 -52 26 -91 29 -137 1 -18 5 -33 8 -33 3 0 7
-19 8 -42 2 -24 7 -56 11 -73 5 -16 8 -50 7 -75 -1 -25 1 -55 6 -67 5 -14 4
-23 -3 -23 -6 0 -7 -5 -2 -12 17 -28 18 -189 0 -200 -9 -6 -9 -8 0 -8 7 0 10
-9 7 -22 -3 -13 -7 -68 -8 -123 -2 -55 -6 -107 -9 -115 -3 -8 -8 -35 -11 -60
-3 -25 -8 -63 -11 -85 -3 -22 -10 -42 -16 -44 -7 -2 -6 -6 2 -12 10 -6 10 -9
2 -9 -7 0 -10 -7 -7 -15 4 -8 1 -15 -5 -15 -6 0 -11 -16 -11 -35 0 -19 -4 -35
-8 -35 -5 0 -9 -7 -10 -15 -1 -8 -3 -22 -4 -30 -1 -8 -5 -15 -10 -15 -5 0 -7
-4 -4 -9 3 -5 -1 -22 -10 -39 -8 -17 -17 -41 -19 -53 -3 -13 -9 -27 -14 -32
-5 -5 -7 -16 -4 -25 4 -10 2 -13 -5 -8 -8 5 -12 0 -12 -13 0 -12 -5 -21 -12
-21 -6 0 -8 -3 -5 -6 4 -4 -2 -19 -13 -34 -11 -16 -20 -34 -20 -42 0 -7 -9
-24 -20 -38 -11 -14 -20 -29 -20 -34 0 -11 -91 -140 -102 -144 -4 -2 -6 -8 -2
-13 3 -5 0 -9 -6 -9 -6 0 -8 -4 -5 -10 3 -5 -2 -10 -11 -10 -10 0 -15 -3 -11
-6 3 -3 -10 -21 -28 -40 -19 -19 -31 -34 -28 -34 4 0 -38 -43 -92 -95 -54 -52
-101 -93 -103 -90 -2 2 -15 -8 -28 -22 -13 -14 -24 -23 -24 -20 0 7 -29 -14
-62 -45 -10 -10 -18 -15 -18 -10 0 4 -4 3 -8 -3 -4 -5 -17 -16 -29 -22 -13 -7
-33 -19 -45 -25 -13 -7 -25 -15 -28 -18 -12 -12 -132 -70 -145 -70 -8 0 -15
-5 -15 -12 0 -6 -3 -9 -6 -5 -3 3 -25 -3 -49 -13 -85 -36 -203 -73 -277 -85
-18 -3 -41 -8 -51 -11 -56 -17 -514 -34 -588 -22 -24 4 -57 10 -74 12 -16 2
-48 7 -70 11 -22 5 -47 9 -55 10 -8 0 -26 7 -39 14 -13 7 -21 9 -18 4 4 -5
-17 -2 -46 8 -29 10 -59 18 -69 19 -9 0 -18 4 -20 9 -1 6 -14 12 -28 15 -31 5
-54 13 -100 34 -19 8 -41 15 -47 15 -7 0 -13 3 -13 7 0 3 -28 20 -62 36 -35
16 -64 32 -66 37 -2 4 -9 7 -16 7 -7 0 -22 9 -34 20 -12 12 -22 18 -22 15 0
-7 -106 70 -142 103 -16 14 -28 23 -28 19 0 -3 -47 41 -105 99 -58 58 -105
109 -105 115 0 14 -26 39 -34 34 -3 -3 -4 -2 -1 2 3 4 -6 19 -21 34 -14 15
-24 29 -23 31 2 1 -4 14 -14 28 -9 13 -17 20 -17 15 0 -5 -14 17 -31 50 -17
33 -37 67 -45 76 -8 8 -14 23 -14 31 0 9 -3 18 -8 20 -9 4 -64 124 -83 183 -8
22 -18 43 -24 47 -5 4 -6 8 -1 8 5 0 3 7 -4 15 -7 8 -9 15 -5 15 4 0 3 6 -2
13 -6 6 -11 19 -11 27 0 8 -6 35 -13 60 -6 25 -12 51 -12 58 0 6 -3 12 -7 12
-3 0 -7 19 -9 42 -1 23 -5 46 -9 52 -3 6 -8 25 -9 41 -3 38 -7 57 -14 70 -8
15 -5 608 3 621 4 7 9 33 10 58 0 26 5 49 10 52 4 3 8 24 8 48 0 23 5 47 12
54 7 7 9 12 5 12 -4 0 -1 15 6 33 8 17 12 38 9 45 -2 7 0 18 6 25 5 7 13 30
17 52 10 47 9 43 22 75 6 14 18 42 26 63 9 20 13 37 9 37 -4 0 -2 4 5 8 6 4
13 16 15 27 1 11 5 22 8 25 3 3 19 32 36 65 44 85 58 109 69 117 6 4 6 8 2 8
-5 0 -2 6 5 14 26 28 48 56 42 56 -3 0 2 7 10 16 9 8 30 35 47 60 16 24 34 44
39 44 6 0 9 4 7 9 -3 11 177 191 192 191 6 0 11 7 11 16 0 8 4 13 8 10 5 -3
19 5 33 17 38 35 154 114 196 133 21 10 40 21 43 24 5 6 36 21 130 63 67 30
95 40 104 38 4 -1 13 3 20 8 11 9 141 47 196 57 14 2 48 9 75 14 28 5 72 11
98 14 27 2 50 5 52 7 8 8 405 3 405 -5z"/>
</g>
</svg>
